<mxfile host="Electron" modified="2021-03-25T13:50:35.464Z" agent="5.0 (X11; Linux x86_64) AppleWebKit/537.36 (KHTML, like Gecko) draw.io/14.4.3 Chrome/87.0.4280.141 Electron/11.3.0 Safari/537.36" etag="Usnt2THrmLteaT_ltCNF" compressed="false" version="14.4.3" type="device">
  <diagram id="uBbau7ussQgPSl02ERnx" name="Page-1">
    <mxGraphModel dx="1593" dy="490" grid="1" gridSize="10" guides="1" tooltips="1" connect="1" arrows="1" fold="1" page="1" pageScale="1" pageWidth="850" pageHeight="1100" math="0" shadow="0">
      <root>
        <mxCell id="0" />
        <mxCell id="1" parent="0" />
        <mxCell id="567" value="начало&lt;br&gt;menu_remove()" style="rounded=1;whiteSpace=wrap;html=1;arcSize=50;" parent="1" vertex="1">
          <mxGeometry x="297.5" width="120" height="30" as="geometry" />
        </mxCell>
        <mxCell id="568" value="конец" style="rounded=1;whiteSpace=wrap;html=1;arcSize=50;" parent="1" vertex="1">
          <mxGeometry x="297.5" y="830" width="120" height="30" as="geometry" />
        </mxCell>
        <mxCell id="566" value="&lt;font style=&quot;font-size: 12px&quot;&gt;selected_elem&lt;/font&gt;" style="rhombus;whiteSpace=wrap;html=1;rounded=0;" parent="1" vertex="1">
          <mxGeometry x="297.5" y="50" width="120" height="60" as="geometry" />
        </mxCell>
        <mxCell id="KXnwny_04ISFHfAiwX2J-593" style="edgeStyle=orthogonalEdgeStyle;rounded=0;orthogonalLoop=1;jettySize=auto;html=1;exitX=0.5;exitY=1;exitDx=0;exitDy=0;" edge="1" parent="1" source="564">
          <mxGeometry relative="1" as="geometry">
            <mxPoint x="360" y="810" as="targetPoint" />
            <mxPoint x="250.50000000000006" y="790" as="sourcePoint" />
            <Array as="points">
              <mxPoint x="252.5" y="810" />
            </Array>
          </mxGeometry>
        </mxCell>
        <mxCell id="564" value="&amp;nbsp; &amp;nbsp;remove_quote();&lt;br&gt;print_to_status&lt;br&gt;(&lt;font style=&quot;font-size: 11px&quot;&gt;&quot;&lt;/font&gt;&lt;font style=&quot;font-size: 11px&quot;&gt;Элемент удалён&lt;/font&gt;&lt;font style=&quot;font-size: 11px&quot;&gt;&quot;&lt;/font&gt;)&amp;nbsp; &amp;nbsp;" style="shape=parallelogram;perimeter=parallelogramPerimeter;whiteSpace=wrap;html=1;fixedSize=1;fontFamily=Helvetica;fontSize=12;fontColor=#000000;align=center;strokeColor=#000000;fillColor=#ffffff;" parent="1" vertex="1">
          <mxGeometry x="185" y="730" width="120" height="60" as="geometry" />
        </mxCell>
        <mxCell id="563" value="link_layer == SEARCH" style="rhombus;whiteSpace=wrap;html=1;rounded=0;" parent="1" vertex="1">
          <mxGeometry x="185" y="470" width="120" height="60" as="geometry" />
        </mxCell>
        <mxCell id="561" value="list_remove(to_delete);&lt;br&gt;link_layer = SHOW;&lt;br&gt;list_remove(to_delete);&lt;br&gt;link_layer = SEARCH" style="rounded=0;whiteSpace=wrap;html=1;" parent="1" vertex="1">
          <mxGeometry x="100" y="550" width="120" height="60" as="geometry" />
        </mxCell>
        <mxCell id="570" style="edgeStyle=orthogonalEdgeStyle;rounded=0;orthogonalLoop=1;jettySize=auto;html=1;exitX=0.5;exitY=1;exitDx=0;exitDy=0;entryX=0.5;entryY=0;entryDx=0;entryDy=0;" parent="1" source="561" target="564" edge="1">
          <mxGeometry relative="1" as="geometry">
            <Array as="points">
              <mxPoint x="160" y="630" />
              <mxPoint x="245" y="630" />
            </Array>
          </mxGeometry>
        </mxCell>
        <mxCell id="562" value="list_remove&lt;br&gt;(to_delete)" style="rounded=0;whiteSpace=wrap;html=1;" parent="1" vertex="1">
          <mxGeometry x="270" y="550" width="120" height="60" as="geometry" />
        </mxCell>
        <mxCell id="572" style="edgeStyle=orthogonalEdgeStyle;rounded=0;orthogonalLoop=1;jettySize=auto;html=1;exitX=0;exitY=0.5;exitDx=0;exitDy=0;entryX=0.5;entryY=0;entryDx=0;entryDy=0;" parent="1" source="563" target="561" edge="1">
          <mxGeometry relative="1" as="geometry">
            <Array as="points">
              <mxPoint x="160" y="500" />
            </Array>
          </mxGeometry>
        </mxCell>
        <mxCell id="573" style="edgeStyle=orthogonalEdgeStyle;rounded=0;orthogonalLoop=1;jettySize=auto;html=1;exitX=1;exitY=0.5;exitDx=0;exitDy=0;entryX=0.5;entryY=0;entryDx=0;entryDy=0;" parent="1" source="563" target="562" edge="1">
          <mxGeometry relative="1" as="geometry">
            <Array as="points">
              <mxPoint x="330" y="500" />
            </Array>
          </mxGeometry>
        </mxCell>
        <mxCell id="560" value="&amp;nbsp;HEAD ==&lt;br&gt;&lt;font&gt;&lt;font style=&quot;font-size: 11px&quot;&gt;first_elem_on_screen&lt;/font&gt;&lt;br&gt;&lt;br&gt;&lt;/font&gt;" style="rhombus;whiteSpace=wrap;html=1;rounded=0;" parent="1" vertex="1">
          <mxGeometry x="185" y="210" width="120" height="60" as="geometry" />
        </mxCell>
        <mxCell id="558" value="0 ==&amp;nbsp;&lt;br&gt;selected_elem_pos&amp;nbsp;&lt;br&gt;&amp;nbsp;" style="rhombus;whiteSpace=wrap;html=1;rounded=0;" parent="1" vertex="1">
          <mxGeometry x="80" y="290" width="120" height="60" as="geometry" />
        </mxCell>
        <mxCell id="KXnwny_04ISFHfAiwX2J-588" style="edgeStyle=orthogonalEdgeStyle;rounded=0;orthogonalLoop=1;jettySize=auto;html=1;exitX=0.5;exitY=1;exitDx=0;exitDy=0;" edge="1" parent="1" source="556">
          <mxGeometry relative="1" as="geometry">
            <mxPoint x="55.19999999999999" y="450" as="targetPoint" />
          </mxGeometry>
        </mxCell>
        <mxCell id="556" value="scroll_set_head&lt;br&gt;(to_delete-&amp;gt;NEXT)" style="rounded=0;whiteSpace=wrap;html=1;" parent="1" vertex="1">
          <mxGeometry x="-5" y="370" width="120" height="60" as="geometry" />
        </mxCell>
        <mxCell id="574" style="edgeStyle=orthogonalEdgeStyle;rounded=0;orthogonalLoop=1;jettySize=auto;html=1;exitX=0.5;exitY=1;exitDx=0;exitDy=0;entryX=0.5;entryY=0;entryDx=0;entryDy=0;" parent="1" source="556" target="563" edge="1">
          <mxGeometry relative="1" as="geometry">
            <Array as="points">
              <mxPoint x="55" y="450" />
              <mxPoint x="245" y="450" />
            </Array>
          </mxGeometry>
        </mxCell>
        <mxCell id="KXnwny_04ISFHfAiwX2J-589" style="edgeStyle=orthogonalEdgeStyle;rounded=0;orthogonalLoop=1;jettySize=auto;html=1;exitX=0.5;exitY=1;exitDx=0;exitDy=0;" edge="1" parent="1" source="557">
          <mxGeometry relative="1" as="geometry">
            <mxPoint x="210.20000000000005" y="450" as="targetPoint" />
          </mxGeometry>
        </mxCell>
        <mxCell id="557" value="selected_elem_pos--;&lt;br&gt;selected_elem = to_delete-&amp;gt;PREV" style="rounded=0;whiteSpace=wrap;html=1;" parent="1" vertex="1">
          <mxGeometry x="150" y="370" width="120" height="60" as="geometry" />
        </mxCell>
        <mxCell id="575" style="edgeStyle=orthogonalEdgeStyle;rounded=0;orthogonalLoop=1;jettySize=auto;html=1;exitX=0.5;exitY=1;exitDx=0;exitDy=0;entryX=0.5;entryY=0;entryDx=0;entryDy=0;" parent="1" source="557" target="563" edge="1">
          <mxGeometry relative="1" as="geometry">
            <Array as="points">
              <mxPoint x="210" y="450" />
              <mxPoint x="245" y="450" />
            </Array>
          </mxGeometry>
        </mxCell>
        <mxCell id="576" style="edgeStyle=orthogonalEdgeStyle;rounded=0;orthogonalLoop=1;jettySize=auto;html=1;exitX=0;exitY=0.5;exitDx=0;exitDy=0;entryX=0.5;entryY=0;entryDx=0;entryDy=0;" parent="1" source="558" target="556" edge="1">
          <mxGeometry relative="1" as="geometry">
            <Array as="points">
              <mxPoint x="55" y="320" />
            </Array>
          </mxGeometry>
        </mxCell>
        <mxCell id="577" style="edgeStyle=orthogonalEdgeStyle;rounded=0;orthogonalLoop=1;jettySize=auto;html=1;exitX=1;exitY=0.5;exitDx=0;exitDy=0;entryX=0.5;entryY=0;entryDx=0;entryDy=0;" parent="1" source="558" target="557" edge="1">
          <mxGeometry relative="1" as="geometry">
            <Array as="points">
              <mxPoint x="210" y="320" />
            </Array>
          </mxGeometry>
        </mxCell>
        <mxCell id="KXnwny_04ISFHfAiwX2J-586" style="edgeStyle=orthogonalEdgeStyle;rounded=0;orthogonalLoop=1;jettySize=auto;html=1;exitX=0.5;exitY=1;exitDx=0;exitDy=0;entryX=0.5;entryY=0;entryDx=0;entryDy=0;" edge="1" parent="1" source="559" target="KXnwny_04ISFHfAiwX2J-585">
          <mxGeometry relative="1" as="geometry" />
        </mxCell>
        <mxCell id="559" value="first_elem_on_screen = first_elem_on_screen&lt;br&gt;-&amp;gt;PREV" style="rounded=0;whiteSpace=wrap;html=1;" parent="1" vertex="1">
          <mxGeometry x="305" y="290" width="120" height="60" as="geometry" />
        </mxCell>
        <mxCell id="579" style="edgeStyle=orthogonalEdgeStyle;rounded=0;orthogonalLoop=1;jettySize=auto;html=1;exitX=0;exitY=0.5;exitDx=0;exitDy=0;entryX=0.5;entryY=0;entryDx=0;entryDy=0;" parent="1" source="560" target="558" edge="1">
          <mxGeometry relative="1" as="geometry" />
        </mxCell>
        <mxCell id="580" style="edgeStyle=orthogonalEdgeStyle;rounded=0;orthogonalLoop=1;jettySize=auto;html=1;exitX=1;exitY=0.5;exitDx=0;exitDy=0;entryX=0.5;entryY=0;entryDx=0;entryDy=0;" parent="1" source="560" target="559" edge="1">
          <mxGeometry relative="1" as="geometry" />
        </mxCell>
        <mxCell id="555" value="ListElement * to_delete = selected_elem" style="rounded=0;whiteSpace=wrap;html=1;" parent="1" vertex="1">
          <mxGeometry x="185" y="130" width="120" height="60" as="geometry" />
        </mxCell>
        <mxCell id="581" style="edgeStyle=orthogonalEdgeStyle;rounded=0;orthogonalLoop=1;jettySize=auto;html=1;exitX=0.5;exitY=1;exitDx=0;exitDy=0;entryX=0.5;entryY=0;entryDx=0;entryDy=0;" parent="1" source="555" target="560" edge="1">
          <mxGeometry relative="1" as="geometry" />
        </mxCell>
        <mxCell id="565" value="print_error&lt;br&gt;(&quot;Нечего&lt;br&gt;удалять&quot;)&amp;nbsp;&amp;nbsp;" style="shape=parallelogram;perimeter=parallelogramPerimeter;whiteSpace=wrap;html=1;fixedSize=1;fontFamily=Helvetica;fontSize=12;fontColor=#000000;align=center;strokeColor=#000000;fillColor=#ffffff;" parent="1" vertex="1">
          <mxGeometry x="400" y="130" width="120" height="60" as="geometry" />
        </mxCell>
        <mxCell id="582" style="edgeStyle=orthogonalEdgeStyle;rounded=0;orthogonalLoop=1;jettySize=auto;html=1;exitX=0.5;exitY=1;exitDx=0;exitDy=0;entryX=0.5;entryY=0;entryDx=0;entryDy=0;" parent="1" source="565" target="568" edge="1">
          <mxGeometry relative="1" as="geometry">
            <Array as="points">
              <mxPoint x="460" y="680" />
              <mxPoint x="358" y="680" />
            </Array>
          </mxGeometry>
        </mxCell>
        <mxCell id="583" style="edgeStyle=orthogonalEdgeStyle;rounded=0;orthogonalLoop=1;jettySize=auto;html=1;exitX=0;exitY=0.5;exitDx=0;exitDy=0;entryX=0.5;entryY=0;entryDx=0;entryDy=0;" parent="1" source="566" target="555" edge="1">
          <mxGeometry relative="1" as="geometry" />
        </mxCell>
        <mxCell id="584" style="edgeStyle=orthogonalEdgeStyle;rounded=0;orthogonalLoop=1;jettySize=auto;html=1;exitX=1;exitY=0.5;exitDx=0;exitDy=0;entryX=0.5;entryY=0;entryDx=0;entryDy=0;" parent="1" source="566" target="565" edge="1">
          <mxGeometry relative="1" as="geometry" />
        </mxCell>
        <mxCell id="585" style="edgeStyle=orthogonalEdgeStyle;rounded=0;orthogonalLoop=1;jettySize=auto;html=1;exitX=0.5;exitY=1;exitDx=0;exitDy=0;entryX=0.5;entryY=0;entryDx=0;entryDy=0;" parent="1" source="567" target="566" edge="1">
          <mxGeometry relative="1" as="geometry" />
        </mxCell>
        <mxCell id="KXnwny_04ISFHfAiwX2J-587" style="edgeStyle=orthogonalEdgeStyle;rounded=0;orthogonalLoop=1;jettySize=auto;html=1;exitX=0.5;exitY=1;exitDx=0;exitDy=0;entryX=0.5;entryY=0;entryDx=0;entryDy=0;" edge="1" parent="1" source="KXnwny_04ISFHfAiwX2J-585" target="563">
          <mxGeometry relative="1" as="geometry">
            <Array as="points">
              <mxPoint x="365" y="450" />
              <mxPoint x="245" y="450" />
            </Array>
          </mxGeometry>
        </mxCell>
        <mxCell id="KXnwny_04ISFHfAiwX2J-590" style="edgeStyle=orthogonalEdgeStyle;rounded=0;orthogonalLoop=1;jettySize=auto;html=1;exitX=0.5;exitY=1;exitDx=0;exitDy=0;" edge="1" parent="1" source="KXnwny_04ISFHfAiwX2J-585">
          <mxGeometry relative="1" as="geometry">
            <mxPoint x="365.20000000000005" y="450" as="targetPoint" />
          </mxGeometry>
        </mxCell>
        <mxCell id="KXnwny_04ISFHfAiwX2J-585" value="selected_elem = to_delete-&amp;gt;PREV" style="rounded=0;whiteSpace=wrap;html=1;" vertex="1" parent="1">
          <mxGeometry x="305" y="370" width="120" height="60" as="geometry" />
        </mxCell>
        <mxCell id="KXnwny_04ISFHfAiwX2J-591" value="redraw_scroll();" style="rounded=0;whiteSpace=wrap;html=1;" vertex="1" parent="1">
          <mxGeometry x="185" y="650" width="120" height="60" as="geometry" />
        </mxCell>
        <mxCell id="KXnwny_04ISFHfAiwX2J-592" style="edgeStyle=orthogonalEdgeStyle;rounded=0;orthogonalLoop=1;jettySize=auto;html=1;exitX=0.5;exitY=1;exitDx=0;exitDy=0;entryX=0.5;entryY=0;entryDx=0;entryDy=0;" edge="1" parent="1" source="562" target="KXnwny_04ISFHfAiwX2J-591">
          <mxGeometry relative="1" as="geometry">
            <Array as="points">
              <mxPoint x="330" y="630" />
              <mxPoint x="245" y="630" />
            </Array>
            <mxPoint x="315" y="610" as="sourcePoint" />
            <mxPoint x="245" y="750" as="targetPoint" />
          </mxGeometry>
        </mxCell>
        <mxCell id="KXnwny_04ISFHfAiwX2J-594" value="2" style="whiteSpace=wrap;html=1;aspect=fixed;" vertex="1" parent="1">
          <mxGeometry x="307" y="130" width="20" height="20" as="geometry" />
        </mxCell>
        <mxCell id="KXnwny_04ISFHfAiwX2J-595" value="3" style="whiteSpace=wrap;html=1;aspect=fixed;" vertex="1" parent="1">
          <mxGeometry x="307" y="210" width="20" height="20" as="geometry" />
        </mxCell>
        <mxCell id="KXnwny_04ISFHfAiwX2J-596" value="7" style="whiteSpace=wrap;html=1;aspect=fixed;" vertex="1" parent="1">
          <mxGeometry x="428" y="290" width="20" height="20" as="geometry" />
        </mxCell>
        <mxCell id="KXnwny_04ISFHfAiwX2J-597" value="8" style="whiteSpace=wrap;html=1;aspect=fixed;" vertex="1" parent="1">
          <mxGeometry x="428" y="370" width="20" height="20" as="geometry" />
        </mxCell>
        <mxCell id="KXnwny_04ISFHfAiwX2J-599" value="6" style="whiteSpace=wrap;html=1;aspect=fixed;" vertex="1" parent="1">
          <mxGeometry x="272" y="370" width="20" height="20" as="geometry" />
        </mxCell>
        <mxCell id="KXnwny_04ISFHfAiwX2J-600" value="5" style="whiteSpace=wrap;html=1;aspect=fixed;" vertex="1" parent="1">
          <mxGeometry x="117" y="370" width="20" height="20" as="geometry" />
        </mxCell>
        <mxCell id="KXnwny_04ISFHfAiwX2J-601" value="11" style="whiteSpace=wrap;html=1;aspect=fixed;" vertex="1" parent="1">
          <mxGeometry x="392" y="550" width="20" height="20" as="geometry" />
        </mxCell>
        <mxCell id="KXnwny_04ISFHfAiwX2J-602" value="10" style="whiteSpace=wrap;html=1;aspect=fixed;" vertex="1" parent="1">
          <mxGeometry x="222" y="550" width="20" height="20" as="geometry" />
        </mxCell>
        <mxCell id="KXnwny_04ISFHfAiwX2J-603" value="12" style="whiteSpace=wrap;html=1;aspect=fixed;" vertex="1" parent="1">
          <mxGeometry x="307" y="650" width="20" height="20" as="geometry" />
        </mxCell>
        <mxCell id="KXnwny_04ISFHfAiwX2J-604" value="9" style="whiteSpace=wrap;html=1;aspect=fixed;" vertex="1" parent="1">
          <mxGeometry x="307" y="470" width="20" height="20" as="geometry" />
        </mxCell>
        <mxCell id="KXnwny_04ISFHfAiwX2J-605" value="13" style="whiteSpace=wrap;html=1;aspect=fixed;" vertex="1" parent="1">
          <mxGeometry x="307" y="730" width="20" height="20" as="geometry" />
        </mxCell>
        <mxCell id="KXnwny_04ISFHfAiwX2J-606" value="14" style="whiteSpace=wrap;html=1;aspect=fixed;" vertex="1" parent="1">
          <mxGeometry x="522" y="130" width="20" height="20" as="geometry" />
        </mxCell>
        <mxCell id="KXnwny_04ISFHfAiwX2J-607" value="4" style="whiteSpace=wrap;html=1;aspect=fixed;" vertex="1" parent="1">
          <mxGeometry x="202" y="290" width="20" height="20" as="geometry" />
        </mxCell>
        <mxCell id="KXnwny_04ISFHfAiwX2J-608" value="1" style="whiteSpace=wrap;html=1;aspect=fixed;" vertex="1" parent="1">
          <mxGeometry x="419.5" y="50" width="20" height="20" as="geometry" />
        </mxCell>
        <mxCell id="KXnwny_04ISFHfAiwX2J-609" value="+" style="text;html=1;align=center;verticalAlign=middle;resizable=0;points=[];autosize=1;" vertex="1" parent="1">
          <mxGeometry x="278" y="60" width="20" height="20" as="geometry" />
        </mxCell>
        <mxCell id="KXnwny_04ISFHfAiwX2J-610" value="+" style="text;html=1;align=center;verticalAlign=middle;resizable=0;points=[];autosize=1;" vertex="1" parent="1">
          <mxGeometry x="165" y="220" width="20" height="20" as="geometry" />
        </mxCell>
      </root>
    </mxGraphModel>
  </diagram>
</mxfile>
